# xmcd CD database file
#
# Track frame offsets:
#	150
#	17151
#	44184
#	66840
#	84632
#	99087
#	118110
#	132364
#	141451
#	150025
#	172307
#	180381
#	200005
#	224040
#
# Disc length: 3345 seconds
#
# Revision: 0
# Processed by: cddbd v1.5.1PL2 Copyright (c) Steve Scherf et al.
# Submitted via: CDex 1.51
#
DISCID=d20d0f0e
DTITLE=Neil cowley Trio - Displaced
DYEAR=2006
DGENRE=Jazz
TTITLE0=Little secrets
TTITLE1=How do we catch up
TTITLE2=Displaced
TTITLE3=Pair of teeth
TTITLE4=She eats flies
TTITLE5=Degree in intuition
TTITLE6=Thats my space
TTITLE7=Clown town
TTITLE8=Pinball number count
TTITLE9=Kenny two steps
TTITLE10=Mourn
TTITLE11=Pillar to post
TTITLE12=Taller than me
TTITLE13=How do we catch up (Entitiy Mix)
EXTD=YEAR: 2006
EXTT0=
EXTT1=
EXTT2=
EXTT3=
EXTT4=
EXTT5=
EXTT6=
EXTT7=
EXTT8=
EXTT9=
EXTT10=
EXTT11=
EXTT12=
EXTT13=
PLAYORDER=
